<?xml version="1.0" encoding="UTF-8" standalone="no"?>
<!DOCTYPE svg PUBLIC "-//W3C//DTD SVG 1.1//EN" "http://www.w3.org/Graphics/SVG/1.1/DTD/svg11.dtd">
<svg width="100%" height="100%" viewBox="0 0 512 513" version="1.1" xmlns="http://www.w3.org/2000/svg" xmlns:xlink="http://www.w3.org/1999/xlink" xml:space="preserve" xmlns:serif="http://www.serif.com/" style="fill-rule:evenodd;clip-rule:evenodd;stroke-linejoin:round;stroke-miterlimit:2;">
    <g id="apple-512" transform="matrix(0.997632,0,0,1,-556.678,0.894662)">
        <rect x="558" y="0" width="513.215" height="512" style="fill:none;"/>
        <clipPath id="_clip1">
            <rect x="558" y="0" width="513.215" height="512"/>
        </clipPath>
        <g clip-path="url(#_clip1)">
            <g id="Master" transform="matrix(0.908356,0,0,0.906204,422.198,-135.48)">
                <g transform="matrix(6.10723,0,0,5.63369,-4671.33,-942.767)">
                    <rect x="764.884" y="167.345" width="141.472" height="153.363" style="fill:rgb(158,191,199);"/>
                </g>
                <g transform="matrix(1.22464,-0.282841,0.275193,1.19153,-1127.11,426.791)">
                    <g transform="matrix(7.75319,0,0,7.96865,-1285.09,-1631.75)">
                        <path d="M324.789,264.673L308.795,264.726C305.716,264.726 304.14,263.816 304.14,259.029L304.14,233.049C304.14,228.217 309.874,224.293 316.937,224.293L331.184,224.311C338.247,224.311 340.543,228.34 340.543,233.172L340.543,244.788C339.747,244.704 338.394,244.555 337.554,244.555C330.236,244.555 328.265,247.881 328.265,251.977C328.265,252.803 328.241,253.707 328.687,254.449C324.882,255.748 322.302,258.315 322.28,260.83C322.276,261.307 323.113,262.543 323.568,263.091C323.598,263.127 323.848,263.782 324.789,264.673Z" style="fill:rgb(157,100,60);"/>
                    </g>
                    <g transform="matrix(7.75319,0,0,10.0822,-3035.73,-2431.52)">
                        <rect x="553.279" y="279.633" width="1.204" height="0.802" style="fill:rgb(157,100,60);"/>
                    </g>
                    <g transform="matrix(7.75319,0,0,7.96865,-3035.73,-1840.54)">
                        <path d="M534.452,289.274C532.54,289.274 531.314,288.515 531.314,285.961L530.793,259.882C530.793,255.049 565.463,252.783 565.463,257.616L565.463,270.245C564.672,270.161 563.856,270.117 563.022,270.117C555.759,270.117 553.802,273.443 553.802,277.539C553.802,277.828 553.831,277.661 553.888,277.941L554.484,277.941L554.484,279.902C550.651,281.176 548.084,283.501 548.084,286.154C548.084,286.715 548.198,286.807 548.415,287.331L549.365,287.331L549.365,289.292L534.452,289.274Z" style="fill:rgb(254,251,241);"/>
                    </g>
                    <g transform="matrix(7.75319,0,0,7.96865,-3035.73,-1854.46)">
                        <path d="M531.822,289.274C531.822,289.274 531.314,288.515 531.314,285.961L530.793,259.882C530.793,255.049 565.463,252.783 565.463,257.616L565.463,270.245C564.672,270.161 563.856,270.117 563.022,270.117C555.759,270.117 553.802,273.443 553.802,277.539C553.802,277.828 553.831,277.661 553.888,277.941L554.484,277.941L554.484,279.902C550.651,281.176 548.084,283.501 548.084,286.154C548.084,286.715 548.198,286.807 548.415,287.331L549.365,287.331L549.365,289.292L531.822,289.274Z" style="fill:rgb(223,218,200);"/>
                    </g>
                    <g transform="matrix(7.75319,0,0,7.96865,-3035.73,-1868.37)">
                        <path d="M531.822,289.274C531.822,289.274 531.314,288.515 531.314,285.961L530.793,259.882C530.793,255.049 565.463,252.783 565.463,257.616L565.463,270.245C564.672,270.161 563.856,270.117 563.022,270.117C555.759,270.117 553.802,273.443 553.802,277.539C553.802,277.828 553.831,277.661 553.888,277.941L554.484,277.941L554.484,279.902C550.651,281.176 548.084,283.501 548.084,286.154C548.084,286.715 548.198,286.807 548.415,287.331L549.365,287.331L549.365,289.292L531.822,289.274Z" style="fill:rgb(254,251,241);"/>
                    </g>
                    <g transform="matrix(7.75319,0,0,7.96865,-3035.73,-1882.29)">
                        <path d="M531.822,289.274C531.822,289.274 531.314,288.515 531.314,285.961L530.793,259.882C530.793,255.049 565.463,252.783 565.463,257.616L565.463,270.245C564.672,270.161 563.856,270.117 563.022,270.117C555.759,270.117 553.802,273.443 553.802,277.539C553.802,277.828 553.831,277.661 553.888,277.941L554.484,277.941L554.484,279.902C550.651,281.176 548.084,283.501 548.084,286.154C548.084,286.715 548.198,286.807 548.415,287.331L549.365,287.331L549.365,289.292L531.822,289.274Z" style="fill:rgb(223,218,200);"/>
                    </g>
                    <g transform="matrix(7.75319,0,0,7.96865,-1318.92,-2178.92)">
                        <path d="M316.733,312.02L316.825,330.385L318.765,328.65L320.702,330.468L320.542,312.022L316.733,312.02Z" style="fill:rgb(141,39,30);"/>
                    </g>
                    <g transform="matrix(7.75319,0,0,7.96865,-3035.73,-1896.2)">
                        <path d="M531.822,289.274C531.822,289.274 531.314,288.515 531.314,285.961L530.793,259.882C530.793,255.049 565.463,252.783 565.463,257.616L565.463,270.245C564.672,270.161 563.856,270.117 563.022,270.117C555.759,270.117 553.802,273.443 553.802,277.539C553.802,277.828 553.831,277.661 553.888,277.941L554.484,278.168L554.484,279.902C550.651,281.176 548.084,283.501 548.084,286.154C548.084,286.715 547.92,286.72 548.136,287.244L549.365,287.636L549.365,289.292L531.822,289.274Z" style="fill:rgb(254,251,241);"/>
                    </g>
                    <g transform="matrix(7.75319,0,0,7.96865,-3035.73,-1840.54)">
                        <path d="M531.226,281.553C531.553,280.689 531.879,280.42 531.879,280.42C531.879,280.42 531.549,281.216 532.371,281.125C533.069,281.048 533.209,287.329 532.329,288.7C532.324,288.709 532.323,288.708 532.323,288.708C531.68,288.215 531.314,287.356 531.314,285.961L531.226,281.553Z"/>
                    </g>
                    <g transform="matrix(4.52233,0,0,2.89454,-313.887,-443.35)">
                        <path d="M355.248,277.727C353.611,278.022 354.718,280.051 355.96,280.396C357.201,280.74 357.305,279.923 357.381,279.173C357.458,278.424 356.054,277.582 355.248,277.727Z" style="fill:rgb(157,100,60);"/>
                    </g>
                    <g transform="matrix(2.3709,-3.83632,4.07533,2.66054,-607.341,1041.45)">
                        <path d="M359.491,270.217C357.854,270.511 358.962,272.54 360.203,272.885C361.444,273.23 361.548,272.412 361.625,271.663C361.702,270.913 360.297,270.072 359.491,270.217Z" style="fill:rgb(157,100,60);"/>
                    </g>
                    <g transform="matrix(7.79121,-2.98564,2.20132,6.06819,-2101.27,-260.777)">
                        <path d="M359.879,275.327C358.242,275.622 359.349,277.651 360.59,277.996C361.832,278.34 361.935,277.523 362.012,276.773C362.089,276.024 360.684,275.182 359.879,275.327Z" style="fill:rgb(157,100,60);"/>
                    </g>
                    <g transform="matrix(4.90583,0,0,5.04216,-2829.45,-939.092)">
                        <path d="M805.058,209L843.681,209.029C851.319,209.029 852.997,210.966 852.997,218.603L852.997,234.535C851.748,234.403 849.001,234.334 847.683,234.334C836.203,234.334 833.181,239.589 833.181,246.063C833.181,247.368 833.56,248.624 834.259,249.797C828.202,251.811 824.144,255.484 824.144,259.678C824.144,261.454 824.872,263.258 826.169,264.76C826.169,264.76 816.31,264.609 803.588,264.609L803.511,264.609L803.431,264.609L803.413,264.61C803.251,264.611 803.093,264.615 802.939,264.621L802.939,264.62C797.87,264.806 797.596,267.237 797.596,270.87L795.466,270.743L795.398,219.803C795.398,212.653 798.035,209.423 803.828,209.039L803.854,209.037L803.927,209.033L804,209.029L804.073,209.025L804.147,209.021L804.221,209.018L804.296,209.015L804.37,209.012L804.446,209.009L804.521,209.007L804.571,209.006L804.64,209.004L804.709,209.003L804.778,209.002L804.848,209.001L804.918,209L804.988,209L805.058,209Z" style="fill:rgb(157,100,60);"/>
                    </g>
                    <g transform="matrix(4.90583,0,0,5.04216,-2829.45,-939.092)">
                        <clipPath id="_clip2">
                            <rect x="803.022" y="203.248" width="59.186" height="66.068"/>
                        </clipPath>
                        <g clip-path="url(#_clip2)">
                            <path d="M805.058,209L843.681,209.029C851.319,209.029 852.997,210.966 852.997,218.603L852.997,234.535C851.748,234.403 849.001,234.334 847.683,234.334C836.203,234.334 833.181,239.589 833.181,246.063C833.181,247.368 833.56,248.624 834.259,249.797C828.202,251.811 824.144,255.484 824.144,259.678C824.144,261.454 824.872,263.258 826.169,264.76C826.169,264.76 816.31,264.609 803.588,264.609L803.511,264.609L803.431,264.609L803.413,264.61C803.251,264.611 803.093,264.615 802.939,264.621L802.939,264.62C797.87,264.806 797.596,267.237 797.596,270.87L795.466,270.743L795.398,219.803C795.398,212.653 798.035,209.423 803.828,209.039L803.854,209.037L803.927,209.033L804,209.029L804.073,209.025L804.147,209.021L804.221,209.018L804.296,209.015L804.37,209.012L804.446,209.009L804.521,209.007L804.571,209.006L804.64,209.004L804.709,209.003L804.778,209.002L804.848,209.001L804.918,209L804.988,209L805.058,209Z" style="fill:rgb(212,132,75);"/>
                        </g>
                    </g>
                </g>
            </g>
        </g>
    </g>
</svg>
